<svg xmlns="http://www.w3.org/2000/svg" width="26" height="25" viewBox="0 0 26 25">
  <path fill="#FFF" fill-rule="evenodd" d="M48.1695878,20.055422 C48.0991302,20.1326981 48.1298134,20.2792955 48.2411819,20.3827091 C48.351414,20.4883955 48.5014205,20.5088509 48.5718782,20.4315748 C48.6468814,20.3554352 48.612789,20.2077014 48.5014205,20.1042878 C48.3911884,19.9997378 48.2400455,19.9781459 48.1695878,20.055422 M47.5945627,19.3031164 C47.5150138,19.3576643 47.5150138,19.4940339 47.5922899,19.6076752 C47.6729752,19.7224529 47.8013899,19.7735915 47.878666,19.7190437 C47.9593514,19.662223 47.9593514,19.5258534 47.8809389,19.4110757 C47.8013899,19.2974344 47.6741116,19.2485686 47.5945627,19.3031164 M47.0740854,18.6553608 C47.0127191,18.7121815 47.0286289,18.8326413 47.1115871,18.9212816 C47.1934088,19.0110582 47.3127322,19.0371957 47.3740985,18.9815115 C47.4377377,18.9235544 47.4218279,18.804231 47.3377333,18.7144543 C47.2525023,18.6246777 47.1377246,18.5985402 47.0740854,18.6553608 M46.5206521,18.2485249 C46.4888326,18.312164 46.5411076,18.3985314 46.6342935,18.4405787 C46.7252065,18.4848988 46.8263473,18.4655798 46.8547576,18.4019407 C46.8865772,18.3371651 46.8331658,18.2496613 46.7399799,18.2087504 C46.6479304,18.1644303 46.5467896,18.1837493 46.5206521,18.2485249 M54.8176057,0 C47.7388872,0 42,5.73661437 42,12.8164693 C42,18.4792168 45.6728878,23.2839722 50.7651558,24.9783645 C51.4060929,25.0976879 51.6413305,24.6999432 51.6413305,24.3612921 C51.6413305,24.0567333 51.6288299,23.0464619 51.6231479,21.9748241 C48.0570829,22.7509944 47.3047773,20.462258 47.3047773,20.462258 C46.7229337,18.9826479 45.8819879,18.5883125 45.8819879,18.5883125 C44.719437,17.7928231 45.9694917,17.8087329 45.9694917,17.8087329 C47.257048,17.899646 47.9343503,19.1303816 47.9343503,19.1303816 C49.0775821,21.0884217 50.933345,20.5224879 51.6640588,20.1952009 C51.7799729,19.3667556 52.1118056,18.8008217 52.4788671,18.4803532 C49.6310154,18.1564754 46.6388391,17.0575637 46.6388391,12.1471218 C46.6388391,10.7481971 47.1399974,9.60496527 47.9593514,8.70719876 C47.826391,8.38332096 47.3877355,7.0798549 48.0843568,5.31386862 C48.0843568,5.31386862 49.1594038,4.9706718 51.6083745,6.62869882 C52.6322829,6.34459549 53.7289217,6.20254383 54.8176057,6.19799818 C55.907426,6.20254383 57.0029285,6.34459549 58.0279733,6.62869882 C60.4746711,4.9706718 61.5485817,5.31386862 61.5485817,5.31386862 C62.2474759,7.0798549 61.8076839,8.38332096 61.6747236,8.70719876 C62.4963504,9.60496527 62.9940994,10.7481971 62.9940994,12.1471218 C62.9940994,17.0700643 59.9951047,18.1530662 57.1415709,18.4701255 C57.6018183,18.8690065 58.0109271,19.6485861 58.0109271,20.8440929 C58.0109271,22.5589406 57.9950173,23.9396827 57.9950173,24.3612921 C57.9950173,24.7033525 58.2268456,25.1022335 58.876874,24.9760917 C63.9657328,23.280563 67.634075,18.476944 67.634075,12.8164693 C67.634075,5.73661437 61.8951878,0 54.8176057,0 M48.9957603,20.6872678 C48.9662136,20.7884086 49.0616723,20.9054592 49.2059968,20.9497793 C49.3514577,20.9918266 49.4957822,20.9463701 49.5264653,20.8463657 C49.5571485,20.7429521 49.4616898,20.6270379 49.3173653,20.5838542 C49.170768,20.5383977 49.0264435,20.5861271 48.9957603,20.6872678 M50.0253508,20.9315967 C50.0264872,21.0361467 50.1503562,21.1213777 50.303772,21.1191049 C50.4560514,21.1168321 50.5787841,21.0281918 50.5753748,20.9236418 C50.5753748,20.8179554 50.4503693,20.7338608 50.29809,20.7361336 C50.1446742,20.7395428 50.0253508,20.8259103 50.0253508,20.9315967 M51.0072119,20.855457 C51.0265309,20.9577342 51.1640369,21.0213733 51.312907,20.9940994 C51.4629136,20.9656891 51.5697365,20.8600027 51.5526903,20.756589 C51.5322348,20.652039 51.3970016,20.5906727 51.2447223,20.6156738 C51.0958521,20.6440841 50.9878928,20.7497706 51.0072119,20.855457" opacity=".3" transform="translate(-42)"/>
</svg>
