<svg xmlns="http://www.w3.org/2000/svg" width="25" height="25" viewBox="0 0 25 25">
  <path fill-rule="evenodd" d="M20.0636364,19.7806818 L16.7397727,19.7806818 L16.7397727,13.8534091 C16.7397727,12.4761364 16.2579545,11.5363636 15.0556818,11.5363636 C14.1375,11.5363636 13.5909091,12.1704545 13.3511364,12.7829545 C13.2636364,13.0011364 13.2409091,13.3079545 13.2409091,13.6136364 L13.2409091,19.7806818 L9.91590909,19.7806818 L9.91590909,12.4977273 C9.91590909,11.1636364 9.87272727,10.05 9.82954545,9.08636364 L12.7159091,9.08636364 L12.8693182,10.5727273 L12.9352273,10.5727273 C13.3715909,9.87386364 14.4443182,8.84545455 16.2375,8.84545455 C18.425,8.84545455 20.0636364,10.3113636 20.0636364,13.4602273 L20.0636364,19.7806818 Z M6.24318182,7.775 C5.19318182,7.775 4.51477273,7.03068182 4.51477273,6.1125 C4.51477273,5.17272727 5.21590909,4.45113636 6.2875,4.45113636 C7.35795455,4.45113636 8.01477273,5.17272727 8.03636364,6.1125 C8.03636364,7.03068182 7.35795455,7.775 6.24318182,7.775 Z M4.60227273,19.7806818 L7.92727273,19.7806818 L7.92727273,9.08636364 L4.60227273,9.08636364 L4.60227273,19.7806818 Z M22.2159091,0 L2.48977273,0 C1.11363636,0 -3.55271368e-14,1.11818182 -3.55271368e-14,2.49886364 L-3.55271368e-14,22.5011364 C-3.55271368e-14,23.8806818 1.11363636,25 2.48977273,25 L22.2159091,25 C23.5909091,25 24.7068182,23.8806818 24.7068182,22.5011364 L24.7068182,2.49886364 C24.7068182,1.11818182 23.5909091,0 22.2159091,0 Z"/>
</svg>
