<?xml version="1.0" encoding="utf-8"?>
<!-- Generator: Adobe Illustrator 23.0.1, SVG Export Plug-In . SVG Version: 6.00 Build 0)  -->
<svg version="1.1" id="Layer_1" xmlns="http://www.w3.org/2000/svg" xmlns:xlink="http://www.w3.org/1999/xlink" x="0px" y="0px"
	 viewBox="0 0 219.9 46.2" style="enable-background:new 0 0 219.9 46.2;" xml:space="preserve">
<style type="text/css">
	.st0{fill-rule:evenodd;clip-rule:evenodd;fill:#FFFFFF;}
</style>
<g>
	<path class="st0" d="M182.4,16.1c3,0,4.3,1.9,4.7,4.7h-9.8C177.8,18,179.5,16.1,182.4,16.1z M206.3,15.4c3.1,0,5.3,2.1,5.4,5.4h-11
		C200.7,17.2,203.2,15.4,206.3,15.4L206.3,15.4z M124.4,16.1c3,0,4.3,1.9,4.7,4.7h-9.8C119.8,18,121.5,16.1,124.4,16.1L124.4,16.1z
		 M98.8,30.3c-3.3,0-5.6-2.3-6.3-5.3h12.6C104.5,28,102.2,30.3,98.8,30.3z M98.8,16.1c3.1,0,5.4,2,6.2,4.7H92.7
		C93.6,18.1,95.8,16.1,98.8,16.1z M64.6,30.3c-3.3,0-5.6-2.3-6.3-5.3h12.6C70.3,28,67.9,30.3,64.6,30.3z M64.6,16.1
		c3.1,0,5.4,2,6.2,4.7H58.5C59.3,18.1,61.5,16.1,64.6,16.1L64.6,16.1z M219.9,20.8h-3.2c-0.4-5.3-4.7-9.3-10.2-9.3
		c-6.1,0-9.9,3.9-10.8,9.3h-3.3c0-2.9-0.4-4.7-1.4-6.3c-1.2-1.9-3.5-3-6.7-3c-3.3,0-5.9,1.3-7.2,3.7V12h-5.2v8.8H168V12h-5.2v8.8
		h-4.2v-20h-5.2v20h-8.9v-4.4h5.1V12h-5.1V5.3h-5.2V12h-3.8v4.4h3.8v4.4h-4.9c0-2.9-0.4-4.7-1.4-6.3c-1.2-1.9-3.5-3-6.7-3
		c-3.3,0-5.8,1.3-7.2,3.7V0.8h-5.2v20h-3.3l0-8.8h-5.2v3c-1.4-2.3-4.3-3.6-6.9-3.6c-5.9,0-10.1,4.1-11.1,9.3h-2.5V12h-5.2v8.8h-3.4
		V12h-5.2v3c-1.4-2.3-4.3-3.6-6.8-3.6c-5.9,0-10.1,4.1-11.1,9.3h-8.2c1-2.8,3.1-4.2,6.3-4.2c0.8,0,1.2,0,2,0.2v-4.8
		c-0.6-0.2-1.2-0.3-2-0.3c-2.9,0-5.9,1.8-6.8,3.9V12h-5.2v8.8h-9.1v-4.4h5.1V12h-5.1V5.3h-5.2V12h-3.8v4.4h3.8v4.4H11.7
		C9.4,20,8.3,19.5,8.3,18c0-1.6,1.4-2.4,3.2-2.4c2.5,0,3.6,1.3,3.6,3.5h5c0-4.4-3.8-7.6-8.5-7.6c-4.5,0-8.3,2.3-8.3,6.5
		c0,1.2,0.2,2.1,0.6,2.9H0V25h10.8c3.1,1.1,4.6,1.5,4.6,3.2c0,1.9-1.6,2.6-3.6,2.6c-2.5,0-4.3-1.1-4.3-4h-5c0,5.3,4.3,8.1,9,8.1
		c4.9,0,8.8-2.2,8.8-6.8c0-1.3-0.3-2.3-0.8-3.1h5.4v1.8c0,7.5,4.7,7.9,7.2,7.9c1.5,0,3-0.1,3.9-0.3v-4.6c-0.5,0.1-1.8,0.2-2.6,0.2
		c-2,0-3.2-0.5-3.2-4.4V25h9.1v9.4h5.2V25h8.7c0.8,5.5,5.1,9.9,11.2,9.9c2.6,0,5.5-1.3,6.9-3.6v3h5.2V25h3.4v9.4h5.2V25h2.4
		c0.8,5.5,5.1,9.9,11.2,9.9c2.6,0,5.5-1.3,6.9-3.6v4.1c0,4.2-2.5,6-6.7,6c-3.8,0-5.7-2.2-5.9-4.6h-5.2c0.1,2.3,1.1,4.7,2.9,6.4
		c1.9,1.7,4.6,2.9,8.3,2.9s6.7-0.8,8.7-2.5c2-1.7,3.2-4.4,3.2-8.2l0-10.5h3.3v9.4h5.2V25h10.1v9.4h5.2V25h4.9v1.8
		c0,7.5,4.7,7.9,7.2,7.9c1.5,0,3-0.1,3.9-0.3v-4.6c-0.5,0.1-1.8,0.2-2.6,0.2c-2,0-3.2-0.5-3.2-4.4V25h8.9v9.4h5.2V25h4.2v9.4h5.2V25
		h3.9v9.4h5.2V25h10.1v9.4h5.2V25h3.2c0.6,5.7,4.2,9.9,11,9.9c5.7,0,9.3-3.5,9.9-7.3h-5.2c-0.6,1.6-1.8,2.9-4.7,2.9
		c-4.2,0-5.6-2.5-5.9-5.6h19.2L219.9,20.8L219.9,20.8z"/>
	<path class="st0" d="M82.3,7.7c2.1,0,3.8-1.7,3.9-3.8c0,0,0,0,0,0c0-2.2-1.7-3.9-3.9-3.9c-2.1,0-3.8,1.7-3.8,3.9
		C78.5,6,80.2,7.7,82.3,7.7 M165.4,7.7c2.1,0,3.8-1.7,3.9-3.8c0,0,0,0,0,0c0-2.2-1.7-3.9-3.9-3.9c-2.1,0-3.8,1.7-3.8,3.9
		C161.6,6,163.3,7.7,165.4,7.7"/>
</g>
</svg>
